<?xml version="1.0" standalone="no"?>
<!DOCTYPE svg PUBLIC "-//W3C//DTD SVG 20010904//EN"
 "http://www.w3.org/TR/2001/REC-SVG-20010904/DTD/svg10.dtd">
<svg version="1.0" xmlns="http://www.w3.org/2000/svg"
 width="1019.000000pt" height="1019.000000pt" viewBox="0 0 1019.000000 1019.000000"
 preserveAspectRatio="xMidYMid meet">
<metadata>
Created by potrace 1.14, written by Peter Selinger 2001-2017
</metadata>
<g transform="translate(0.000000,1019.000000) scale(0.100000,-0.100000)"
fill="#000000" stroke="none">
<path d="M4917 10164 c-1 -1 -54 -4 -117 -8 -63 -4 -137 -9 -165 -11 -107 -10
-161 -16 -185 -20 -14 -2 -45 -7 -70 -9 -131 -15 -534 -98 -655 -137 -32 -10
-204 -61 -220 -65 -5 -2 -62 -21 -125 -44 -448 -160 -915 -407 -1290 -683 -83
-62 -276 -212 -290 -227 -3 -3 -43 -38 -90 -79 -187 -164 -453 -445 -616 -651
-66 -84 -239 -325 -272 -381 l-22 -37 610 -306 c335 -168 613 -306 617 -306 5
1 47 53 95 118 247 331 427 522 693 734 111 88 299 216 408 277 127 71 159 88
217 116 299 147 685 273 970 319 19 3 44 7 55 10 20 4 52 8 195 26 168 21 531
29 690 16 163 -13 445 -54 530 -76 19 -5 47 -11 61 -14 75 -13 245 -63 414
-123 89 -31 117 -42 190 -74 102 -44 252 -117 337 -165 93 -52 315 -190 328
-204 3 -3 39 -30 80 -61 128 -95 229 -184 396 -350 88 -87 164 -159 168 -159
4 0 33 17 64 37 31 21 65 42 74 48 9 5 97 63 195 129 98 65 321 213 496 329
174 116 317 213 317 217 0 4 -44 56 -97 116 -171 193 -426 435 -597 569 -21
17 -44 35 -50 40 -6 6 -27 22 -46 35 -19 13 -37 27 -40 30 -23 26 -281 200
-436 294 -60 37 -116 71 -124 76 -46 29 -422 213 -518 254 -348 147 -846 292
-1140 331 -20 2 -46 6 -57 9 -58 11 -214 31 -325 41 -161 14 -242 17 -436 19
-118 1 -215 1 -217 0z"/>
<path d="M5008 8025 c-2 -1 -50 -5 -108 -9 -58 -4 -114 -8 -125 -10 -11 -1
-45 -6 -75 -10 -78 -11 -286 -55 -345 -73 -385 -117 -636 -233 -920 -423 -520
-349 -936 -903 -1139 -1515 -35 -105 -75 -254 -92 -340 -4 -22 -8 -46 -10 -53
-1 -8 -7 -44 -13 -80 -6 -37 -14 -83 -18 -102 -4 -19 -8 -1027 -10 -2240 l-3
-2205 110 -73 c177 -118 332 -209 525 -307 230 -116 329 -160 567 -249 l68
-25 3 2497 2 2497 29 115 c24 100 44 160 100 305 25 65 110 215 171 300 186
260 447 469 735 588 19 8 67 28 105 45 75 32 250 76 355 89 81 10 356 10 430
1 613 -80 1137 -473 1372 -1028 96 -227 133 -412 133 -665 0 -153 -7 -216 -35
-351 -128 -616 -612 -1123 -1232 -1289 -51 -14 -113 -28 -138 -31 -25 -3 -48
-8 -51 -10 -10 -6 -198 -18 -279 -18 -69 0 -135 6 -250 20 -139 17 -373 94
-523 172 l-97 51 0 -685 0 -684 24 -10 c26 -9 250 -65 301 -75 17 -3 62 -10
100 -16 39 -6 81 -12 95 -15 109 -18 451 -25 615 -11 99 8 120 11 245 32 47 8
99 17 116 20 73 12 282 71 364 102 8 3 20 7 25 9 33 9 206 84 296 128 376 187
714 460 983 796 144 179 245 338 351 550 153 306 258 675 292 1025 15 157 8
570 -11 685 -3 14 -7 43 -11 65 -41 286 -133 579 -267 855 -56 115 -176 323
-190 328 -4 2 -8 8 -8 13 0 6 -32 54 -71 107 -318 431 -763 785 -1230 977 -35
14 -77 32 -94 40 -55 24 -249 83 -357 110 -146 35 -258 54 -422 70 -59 7 -383
15 -388 10z"/>
<path d="M9465 7270 c-93 -60 -243 -155 -333 -212 -89 -57 -213 -135 -275
-175 -61 -39 -159 -101 -217 -138 -58 -36 -115 -74 -128 -83 l-23 -18 39 -84
c21 -47 48 -112 61 -145 13 -33 27 -69 32 -80 37 -83 135 -430 158 -560 6 -33
13 -71 16 -85 5 -25 22 -139 29 -195 3 -16 7 -64 11 -105 3 -41 8 -95 10 -120
5 -51 5 -397 1 -450 -13 -157 -18 -216 -21 -229 -1 -9 -6 -38 -9 -66 -13 -92
-17 -119 -38 -220 -251 -1239 -1109 -2268 -2283 -2738 -175 -70 -462 -160
-585 -182 -14 -3 -36 -7 -50 -10 -47 -10 -125 -24 -170 -30 -25 -3 -52 -8 -60
-10 -16 -5 -56 -10 -175 -20 -38 -4 -88 -8 -110 -11 -50 -5 -448 -5 -495 1
-19 2 -71 7 -115 11 -44 4 -89 8 -100 9 -22 2 -109 15 -140 21 -11 2 -49 9
-85 15 -36 6 -78 13 -94 16 -16 2 -40 9 -53 14 -53 20 -50 56 -51 -639 0 -487
3 -649 11 -649 7 0 26 -3 42 -7 17 -3 66 -10 110 -16 44 -6 91 -13 105 -15
118 -18 442 -37 620 -37 106 -1 384 11 421 17 13 2 60 6 103 10 43 4 86 8 95
10 9 1 41 6 71 10 69 8 108 14 140 20 14 3 41 7 60 10 33 5 106 19 160 31 14
3 36 7 50 10 14 3 79 18 145 35 466 115 921 302 1350 554 86 50 369 236 415
272 8 6 66 51 128 99 452 348 878 820 1184 1309 211 337 390 720 516 1100 70
211 168 606 187 758 9 67 16 114 20 137 28 165 40 376 40 690 0 246 -6 396
-20 515 -2 17 -6 59 -9 94 -4 35 -8 66 -10 70 -2 3 -7 31 -10 62 -4 31 -9 67
-11 80 -3 13 -7 41 -11 63 -3 21 -14 80 -25 130 -11 50 -22 102 -25 116 -3 14
-7 33 -10 42 -3 9 -6 25 -8 35 -18 87 -97 350 -154 508 -72 199 -234 565 -250
565 -4 -1 -83 -50 -177 -110z"/>
<path d="M300 6796 c-46 -123 -137 -431 -165 -566 -9 -41 -19 -84 -21 -95 -9
-40 -23 -111 -29 -155 -4 -24 -8 -47 -10 -50 -2 -3 -6 -30 -10 -60 -3 -30 -8
-62 -10 -70 -2 -8 -7 -44 -10 -80 -4 -36 -8 -72 -10 -80 -3 -14 -14 -155 -21
-250 -5 -72 -5 -530 0 -592 11 -134 18 -215 22 -248 2 -19 6 -57 9 -85 3 -27
8 -57 10 -65 2 -8 7 -37 10 -65 3 -27 7 -61 10 -75 3 -14 10 -52 16 -85 144
-808 511 -1602 1046 -2263 82 -101 101 -123 181 -210 l32 -36 0 35 c1 18 2
857 4 1864 2 1007 6 1848 10 1870 4 22 13 85 22 141 33 222 71 390 127 565
l24 76 -131 64 c-192 92 -907 443 -1009 495 l-87 44 -10 -24z"/>
</g>
</svg>
